<svg id="Ebene_1" data-name="Ebene 1" xmlns="http://www.w3.org/2000/svg" viewBox="0 0 2000.5 2000"><defs><style>.cls-1{fill:#2e92bd;}.cls-2{fill:#00c900;}.cls-2,.cls-3{stroke:#000;stroke-miterlimit:10;}.cls-3{fill:#fffde9;}</style></defs><path class="cls-1" d="M2000,1000c0,252.71-93.74,483.53-248.35,659.58C1568.38,1868.27,1299.57,2000,1000,2000,447.72,2000,0,1552.28,0,1000S447.72,0,1000,0,2000,447.72,2000,1000Z"/><path class="cls-2" d="M312.82,273.51l43.68,63,35,93,29,32,53,12,132-12,82-23,52-57,66,29,52-19,36-32,46-50,74-44,92-15h85s52-62,54-68,36-42,43-46,59-36,59-36l42.08-22.19L1239.1,28.77,1063.52,2,962.41.7,901.73,4.77,759.3,29.16l-93.91,28.2L597,84.53l-71.55,35-53.35,31-64.39,43.66-35.24,26.16Z"/><path class="cls-3" d="M850.5,1219.5l-147-59v-48l-37-47v-46l39-33,7-76,28-63h77l33-56,78-37h72l86-28h88l70,42,42,49,23,60,67,7,26,56s19,64,21,70,26,93,21,102-14,90-14,90l-30,75-42,39-56,42-14,60h-127l-35-39-58-14-98,21-100-42-32-44-49-51-44-30Z"/><path class="cls-2" d="M890.12,1994,850.5,1863.5l-114-43-86-43-13-75-65-52-77-22-41-108,34-177s-3-134-34-152-143-58-161-58-106-44-127-61-55-73-55-73h-68L.69,962.62v74.76l7.81,93.53L36.87,1270l76.62,193.15,89.38,140.75,110,122.6,90.05,75.72,116.41,74.87,128.1,59,138.91,33.21Z"/><polygon class="cls-2" points="1771.5 1548.5 1715.5 1393.5 1771.5 1281.5 1814.5 1114.5 1876.5 1046.5 1999.5 962.5 2000 1072.5 1980.06 1199.69 1943.88 1331.11 1878.39 1478.33 1807.86 1589.48 1771.5 1548.5"/></svg>